<svg width="28" height="30" viewBox="0 0 28 30" fill="none" xmlns="http://www.w3.org/2000/svg">
<g filter="url(#filter0_d)">
<path d="M8.75 2.5C9.30812 2.5 9.86077 2.60993 10.3764 2.82351C10.892 3.03709 11.3606 3.35015 11.7552 3.7448C12.1499 4.13945 12.4629 4.60796 12.6765 5.1236C12.8901 5.63923 13 6.19188 13 6.75V11H8.75C7.62283 11 6.54183 10.5522 5.7448 9.7552C4.94777 8.95817 4.5 7.87717 4.5 6.75C4.5 5.62283 4.94777 4.54183 5.7448 3.7448C6.54183 2.94777 7.62283 2.5 8.75 2.5ZM11 9V6.75C11 6.30499 10.868 5.86998 10.6208 5.49997C10.3736 5.12996 10.0222 4.84157 9.61104 4.67127C9.19991 4.50097 8.74751 4.45642 8.31105 4.54323C7.87459 4.63005 7.47368 4.84434 7.15901 5.15901C6.84434 5.47368 6.63005 5.87459 6.54323 6.31105C6.45642 6.7475 6.50098 7.1999 6.67127 7.61104C6.84157 8.02217 7.12996 8.37357 7.49997 8.62081C7.86998 8.86804 8.30499 9 8.75 9H11ZM8.75 13H13V17.25C13 18.0906 12.7507 18.9123 12.2837 19.6112C11.8168 20.3101 11.153 20.8548 10.3764 21.1765C9.59982 21.4982 8.74529 21.5823 7.92087 21.4183C7.09645 21.2543 6.33917 20.8496 5.7448 20.2552C5.15042 19.6608 4.74565 18.9036 4.58166 18.0791C4.41768 17.2547 4.50184 16.4002 4.82351 15.6236C5.14519 14.847 5.68992 14.1833 6.38883 13.7163C7.08774 13.2493 7.90943 13 8.75 13ZM8.75 15C8.30499 15 7.86998 15.132 7.49997 15.3792C7.12996 15.6264 6.84157 15.9778 6.67127 16.389C6.50098 16.8001 6.45642 17.2525 6.54323 17.689C6.63005 18.1254 6.84434 18.5263 7.15901 18.841C7.47368 19.1557 7.87459 19.3699 8.31105 19.4568C8.74751 19.5436 9.19991 19.499 9.61104 19.3287C10.0222 19.1584 10.3736 18.87 10.6208 18.5C10.868 18.13 11 17.695 11 17.25V15H8.75ZM19.25 2.5C20.3772 2.5 21.4582 2.94777 22.2552 3.7448C23.0522 4.54183 23.5 5.62283 23.5 6.75C23.5 7.87717 23.0522 8.95817 22.2552 9.7552C21.4582 10.5522 20.3772 11 19.25 11H15V6.75C15 5.62283 15.4478 4.54183 16.2448 3.7448C17.0418 2.94777 18.1228 2.5 19.25 2.5ZM19.25 9C19.695 9 20.13 8.86804 20.5 8.62081C20.87 8.37357 21.1584 8.02217 21.3287 7.61104C21.499 7.1999 21.5436 6.7475 21.4568 6.31105C21.37 5.87459 21.1557 5.47368 20.841 5.15901C20.5263 4.84434 20.1254 4.63005 19.689 4.54323C19.2525 4.45642 18.8001 4.50097 18.389 4.67127C17.9778 4.84157 17.6264 5.12996 17.3792 5.49997C17.132 5.86998 17 6.30499 17 6.75V9H19.25ZM15 13H19.25C20.0906 13 20.9123 13.2493 21.6112 13.7163C22.3101 14.1833 22.8548 14.847 23.1765 15.6236C23.4982 16.4002 23.5823 17.2547 23.4183 18.0791C23.2544 18.9036 22.8496 19.6608 22.2552 20.2552C21.6608 20.8496 20.9036 21.2543 20.0791 21.4183C19.2547 21.5823 18.4002 21.4982 17.6236 21.1765C16.847 20.8548 16.1833 20.3101 15.7163 19.6112C15.2493 18.9123 15 18.0906 15 17.25V13ZM17 15V17.25C17 17.695 17.132 18.13 17.3792 18.5C17.6264 18.87 17.9778 19.1584 18.389 19.3287C18.8001 19.499 19.2525 19.5436 19.689 19.4568C20.1254 19.3699 20.5263 19.1557 20.841 18.841C21.1557 18.5263 21.37 18.1254 21.4568 17.689C21.5436 17.2525 21.499 16.8001 21.3287 16.389C21.1584 15.9778 20.87 15.6264 20.5 15.3792C20.13 15.132 19.695 15 19.25 15H17Z" fill="#09121F"/>
</g>
<defs>
<filter id="filter0_d" x="-2" y="0" width="32" height="32" filterUnits="userSpaceOnUse" color-interpolation-filters="sRGB">
<feFlood flood-opacity="0" result="BackgroundImageFix"/>
<feColorMatrix in="SourceAlpha" type="matrix" values="0 0 0 0 0 0 0 0 0 0 0 0 0 0 0 0 0 0 127 0" result="hardAlpha"/>
<feOffset dy="4"/>
<feGaussianBlur stdDeviation="2"/>
<feComposite in2="hardAlpha" operator="out"/>
<feColorMatrix type="matrix" values="0 0 0 0 0 0 0 0 0 0 0 0 0 0 0 0 0 0 0.25 0"/>
<feBlend mode="normal" in2="BackgroundImageFix" result="effect1_dropShadow"/>
<feBlend mode="normal" in="SourceGraphic" in2="effect1_dropShadow" result="shape"/>
</filter>
</defs>
</svg>
