<svg width="29" height="30" viewBox="0 0 29 30" fill="none" xmlns="http://www.w3.org/2000/svg">
<g filter="url(#filter0_d)">
<path d="M15 2C20.523 2 25 6.477 25 12C25 17.523 20.523 22 15 22C12.47 22 10.16 21.06 8.399 19.512L4.5 20L5.924 16.203C5.33 14.925 5 13.501 5 12C5 6.477 9.477 2 15 2ZM11 7V17H14.733L14.996 16.996C18.371 16.893 20.333 14.785 20.333 11.971V11.944L20.33 11.729C20.23 8.956 18.21 7 14.79 7H11ZM14.831 9.458C16.459 9.458 17.54 10.386 17.54 11.987V12.015L17.535 12.198C17.456 13.698 16.397 14.543 14.831 14.543H13.723V9.458H14.831Z" fill="#09121F"/>
</g>
<defs>
<filter id="filter0_d" x="-1" y="0" width="32" height="32" filterUnits="userSpaceOnUse" color-interpolation-filters="sRGB">
<feFlood flood-opacity="0" result="BackgroundImageFix"/>
<feColorMatrix in="SourceAlpha" type="matrix" values="0 0 0 0 0 0 0 0 0 0 0 0 0 0 0 0 0 0 127 0" result="hardAlpha"/>
<feOffset dy="4"/>
<feGaussianBlur stdDeviation="2"/>
<feComposite in2="hardAlpha" operator="out"/>
<feColorMatrix type="matrix" values="0 0 0 0 0 0 0 0 0 0 0 0 0 0 0 0 0 0 0.25 0"/>
<feBlend mode="normal" in2="BackgroundImageFix" result="effect1_dropShadow"/>
<feBlend mode="normal" in="SourceGraphic" in2="effect1_dropShadow" result="shape"/>
</filter>
</defs>
</svg>
