<svg width="31" height="29" viewBox="0 0 31 29" fill="none" xmlns="http://www.w3.org/2000/svg">
<g filter="url(#filter0_d)">
<path d="M4 14.5C3.99939 13.3955 4.28042 12.309 4.81655 11.3433C5.35268 10.3776 6.1262 9.56456 7.064 8.981C7.31151 7.05109 8.2538 5.2775 9.71452 3.99216C11.1752 2.70681 13.0543 1.9978 15 1.9978C16.9457 1.9978 18.8248 2.70681 20.2855 3.99216C21.7462 5.2775 22.6885 7.05109 22.936 8.981C24.0992 9.70469 25.0041 10.7774 25.5213 12.046C26.0385 13.3146 26.1417 14.7141 25.8161 16.0448C25.4906 17.3756 24.7528 18.5694 23.7083 19.4559C22.6638 20.3423 21.366 20.8761 20 20.981L10 21C6.644 20.726 4 17.922 4 14.5ZM19.848 18.987C20.7938 18.9143 21.6925 18.5445 22.4156 17.9305C23.1387 17.3166 23.6493 16.4898 23.8745 15.5682C24.0996 14.6467 24.0278 13.6776 23.6692 12.7994C23.3107 11.9211 22.6837 11.1787 21.878 10.678L21.071 10.175L20.951 9.233C20.7641 7.78669 20.0569 6.45794 18.9616 5.49509C17.8663 4.53224 16.4578 4.00119 14.9995 4.00119C13.5412 4.00119 12.1327 4.53224 11.0374 5.49509C9.94213 6.45794 9.23493 7.78669 9.048 9.233L8.928 10.175L8.123 10.678C7.3173 11.1786 6.69038 11.921 6.3318 12.7992C5.97321 13.6773 5.90129 14.6463 6.12631 15.5678C6.35133 16.4893 6.86177 17.3161 7.58475 17.9302C8.30773 18.5442 9.20625 18.9141 10.152 18.987L10.325 19H19.675L19.848 18.987ZM16 12H19L15 17L11 12H14V8H16V12Z" fill="#09121F"/>
</g>
<defs>
<filter id="filter0_d" x="-1" y="0" width="32" height="32" filterUnits="userSpaceOnUse" color-interpolation-filters="sRGB">
<feFlood flood-opacity="0" result="BackgroundImageFix"/>
<feColorMatrix in="SourceAlpha" type="matrix" values="0 0 0 0 0 0 0 0 0 0 0 0 0 0 0 0 0 0 127 0" result="hardAlpha"/>
<feOffset dy="4"/>
<feGaussianBlur stdDeviation="2"/>
<feComposite in2="hardAlpha" operator="out"/>
<feColorMatrix type="matrix" values="0 0 0 0 0 0 0 0 0 0 0 0 0 0 0 0 0 0 0.25 0"/>
<feBlend mode="normal" in2="BackgroundImageFix" result="effect1_dropShadow"/>
<feBlend mode="normal" in="SourceGraphic" in2="effect1_dropShadow" result="shape"/>
</filter>
</defs>
</svg>
