<svg width="26" height="26" viewBox="0 0 26 26" fill="none" xmlns="http://www.w3.org/2000/svg">
<g filter="url(#filter0_d)">
<path d="M13 1.5C15.0378 1.5 15.292 1.5075 16.0915 1.545C16.8903 1.5825 17.434 1.70775 17.9125 1.89375C18.4075 2.08425 18.8245 2.34225 19.2415 2.7585C19.6229 3.13342 19.918 3.58694 20.1063 4.0875C20.2915 4.56525 20.4175 5.10975 20.455 5.9085C20.4903 6.708 20.5 6.96225 20.5 9C20.5 11.0378 20.4925 11.292 20.455 12.0915C20.4175 12.8903 20.2915 13.434 20.1063 13.9125C19.9185 14.4133 19.6233 14.867 19.2415 15.2415C18.8665 15.6227 18.413 15.9178 17.9125 16.1063C17.4347 16.2915 16.8903 16.4175 16.0915 16.455C15.292 16.4903 15.0378 16.5 13 16.5C10.9622 16.5 10.708 16.4925 9.9085 16.455C9.10975 16.4175 8.566 16.2915 8.0875 16.1063C7.58674 15.9184 7.13315 15.6232 6.7585 15.2415C6.37705 14.8666 6.08195 14.4131 5.89375 13.9125C5.70775 13.4347 5.5825 12.8903 5.545 12.0915C5.50975 11.292 5.5 11.0378 5.5 9C5.5 6.96225 5.5075 6.708 5.545 5.9085C5.5825 5.109 5.70775 4.566 5.89375 4.0875C6.08143 3.58663 6.3766 3.13299 6.7585 2.7585C7.13325 2.37692 7.58682 2.0818 8.0875 1.89375C8.566 1.70775 9.109 1.5825 9.9085 1.545C10.708 1.50975 10.9622 1.5 13 1.5ZM13 5.25C12.0054 5.25 11.0516 5.64509 10.3483 6.34835C9.64509 7.05161 9.25 8.00544 9.25 9C9.25 9.99456 9.64509 10.9484 10.3483 11.6517C11.0516 12.3549 12.0054 12.75 13 12.75C13.9946 12.75 14.9484 12.3549 15.6517 11.6517C16.3549 10.9484 16.75 9.99456 16.75 9C16.75 8.00544 16.3549 7.05161 15.6517 6.34835C14.9484 5.64509 13.9946 5.25 13 5.25ZM17.875 5.0625C17.875 4.81386 17.7762 4.5754 17.6004 4.39959C17.4246 4.22377 17.1861 4.125 16.9375 4.125C16.6889 4.125 16.4504 4.22377 16.2746 4.39959C16.0988 4.5754 16 4.81386 16 5.0625C16 5.31114 16.0988 5.5496 16.2746 5.72541C16.4504 5.90123 16.6889 6 16.9375 6C17.1861 6 17.4246 5.90123 17.6004 5.72541C17.7762 5.5496 17.875 5.31114 17.875 5.0625ZM13 6.75C13.5967 6.75 14.169 6.98705 14.591 7.40901C15.0129 7.83097 15.25 8.40326 15.25 9C15.25 9.59674 15.0129 10.169 14.591 10.591C14.169 11.0129 13.5967 11.25 13 11.25C12.4033 11.25 11.831 11.0129 11.409 10.591C10.9871 10.169 10.75 9.59674 10.75 9C10.75 8.40326 10.9871 7.83097 11.409 7.40901C11.831 6.98705 12.4033 6.75 13 6.75Z" fill="#27272E"/>
</g>
<defs>
<filter id="filter0_d" x="0" y="0" width="26" height="26" filterUnits="userSpaceOnUse" color-interpolation-filters="sRGB">
<feFlood flood-opacity="0" result="BackgroundImageFix"/>
<feColorMatrix in="SourceAlpha" type="matrix" values="0 0 0 0 0 0 0 0 0 0 0 0 0 0 0 0 0 0 127 0" result="hardAlpha"/>
<feOffset dy="4"/>
<feGaussianBlur stdDeviation="2"/>
<feComposite in2="hardAlpha" operator="out"/>
<feColorMatrix type="matrix" values="0 0 0 0 0 0 0 0 0 0 0 0 0 0 0 0 0 0 0.25 0"/>
<feBlend mode="normal" in2="BackgroundImageFix" result="effect1_dropShadow"/>
<feBlend mode="normal" in="SourceGraphic" in2="effect1_dropShadow" result="shape"/>
</filter>
</defs>
</svg>
