<svg width="26" height="30" viewBox="0 0 26 30" fill="none" xmlns="http://www.w3.org/2000/svg">
<g filter="url(#filter0_d)">
<path d="M20 10H21C21.2652 10 21.5196 10.1054 21.7071 10.2929C21.8946 10.4804 22 10.7348 22 11V21C22 21.2652 21.8946 21.5196 21.7071 21.7071C21.5196 21.8946 21.2652 22 21 22H5C4.73478 22 4.48043 21.8946 4.29289 21.7071C4.10536 21.5196 4 21.2652 4 21V11C4 10.7348 4.10536 10.4804 4.29289 10.2929C4.48043 10.1054 4.73478 10 5 10H6V9C6 8.08075 6.18106 7.1705 6.53284 6.32122C6.88463 5.47194 7.40024 4.70026 8.05025 4.05025C8.70026 3.40024 9.47194 2.88463 10.3212 2.53284C11.1705 2.18106 12.0807 2 13 2C13.9193 2 14.8295 2.18106 15.6788 2.53284C16.5281 2.88463 17.2997 3.40024 17.9497 4.05025C18.5998 4.70026 19.1154 5.47194 19.4672 6.32122C19.8189 7.1705 20 8.08075 20 9V10ZM6 12V20H20V12H6ZM12 14H14V18H12V14ZM18 10V9C18 7.67392 17.4732 6.40215 16.5355 5.46447C15.5979 4.52678 14.3261 4 13 4C11.6739 4 10.4021 4.52678 9.46447 5.46447C8.52678 6.40215 8 7.67392 8 9V10H18Z" fill="#09121F"/>
</g>
<defs>
<filter id="filter0_d" x="-3" y="0" width="32" height="32" filterUnits="userSpaceOnUse" color-interpolation-filters="sRGB">
<feFlood flood-opacity="0" result="BackgroundImageFix"/>
<feColorMatrix in="SourceAlpha" type="matrix" values="0 0 0 0 0 0 0 0 0 0 0 0 0 0 0 0 0 0 127 0" result="hardAlpha"/>
<feOffset dy="4"/>
<feGaussianBlur stdDeviation="2"/>
<feComposite in2="hardAlpha" operator="out"/>
<feColorMatrix type="matrix" values="0 0 0 0 0 0 0 0 0 0 0 0 0 0 0 0 0 0 0.25 0"/>
<feBlend mode="normal" in2="BackgroundImageFix" result="effect1_dropShadow"/>
<feBlend mode="normal" in="SourceGraphic" in2="effect1_dropShadow" result="shape"/>
</filter>
</defs>
</svg>
