<svg width="26" height="32" viewBox="0 0 26 32" fill="none" xmlns="http://www.w3.org/2000/svg">
<g filter="url(#filter0_d)">
<path d="M13 23.728L6.636 17.364C5.37734 16.1053 4.52019 14.5017 4.17293 12.7558C3.82567 11.01 4.00391 9.20043 4.6851 7.5559C5.36629 5.91137 6.51984 4.50577 7.99988 3.51684C9.47992 2.52791 11.22 2.00008 13 2.00008C14.78 2.00008 16.5201 2.52791 18.0001 3.51684C19.4802 4.50577 20.6337 5.91137 21.3149 7.5559C21.9961 9.20043 22.1743 11.01 21.8271 12.7558C21.4798 14.5017 20.6227 16.1053 19.364 17.364L13 23.728ZM17.95 15.95C18.9289 14.971 19.5955 13.7237 19.8656 12.3659C20.1356 11.008 19.9969 9.6006 19.4671 8.32155C18.9373 7.04251 18.04 5.9493 16.8889 5.18017C15.7378 4.41103 14.3844 4.0005 13 4.0005C11.6156 4.0005 10.2622 4.41103 9.11109 5.18017C7.95996 5.9493 7.06275 7.04251 6.53292 8.32155C6.00308 9.6006 5.86442 11.008 6.13445 12.3659C6.40449 13.7237 7.07111 14.971 8.05 15.95L13 20.9L17.95 15.95ZM13 13C12.4696 13 11.9609 12.7893 11.5858 12.4142C11.2107 12.0391 11 11.5304 11 11C11 10.4696 11.2107 9.96086 11.5858 9.58578C11.9609 9.21071 12.4696 9 13 9C13.5304 9 14.0391 9.21071 14.4142 9.58578C14.7893 9.96086 15 10.4696 15 11C15 11.5304 14.7893 12.0391 14.4142 12.4142C14.0391 12.7893 13.5304 13 13 13Z" fill="#09121F"/>
</g>
<defs>
<filter id="filter0_d" x="-3" y="0" width="32" height="32" filterUnits="userSpaceOnUse" color-interpolation-filters="sRGB">
<feFlood flood-opacity="0" result="BackgroundImageFix"/>
<feColorMatrix in="SourceAlpha" type="matrix" values="0 0 0 0 0 0 0 0 0 0 0 0 0 0 0 0 0 0 127 0" result="hardAlpha"/>
<feOffset dy="4"/>
<feGaussianBlur stdDeviation="2"/>
<feComposite in2="hardAlpha" operator="out"/>
<feColorMatrix type="matrix" values="0 0 0 0 0 0 0 0 0 0 0 0 0 0 0 0 0 0 0.25 0"/>
<feBlend mode="normal" in2="BackgroundImageFix" result="effect1_dropShadow"/>
<feBlend mode="normal" in="SourceGraphic" in2="effect1_dropShadow" result="shape"/>
</filter>
</defs>
</svg>
