<svg width="26" height="32" viewBox="0 0 26 32" fill="none" xmlns="http://www.w3.org/2000/svg">
<g filter="url(#filter0_d)">
<path d="M6 18H20V11.031C20 7.148 16.866 4 13 4C9.134 4 6 7.148 6 11.031V18ZM13 2C17.97 2 22 6.043 22 11.031V20H4V11.031C4 6.043 8.03 2 13 2ZM10.5 21H15.5C15.5 21.663 15.2366 22.2989 14.7678 22.7678C14.2989 23.2366 13.663 23.5 13 23.5C12.337 23.5 11.7011 23.2366 11.2322 22.7678C10.7634 22.2989 10.5 21.663 10.5 21Z" fill="#09121F"/>
</g>
<defs>
<filter id="filter0_d" x="-3" y="0" width="32" height="32" filterUnits="userSpaceOnUse" color-interpolation-filters="sRGB">
<feFlood flood-opacity="0" result="BackgroundImageFix"/>
<feColorMatrix in="SourceAlpha" type="matrix" values="0 0 0 0 0 0 0 0 0 0 0 0 0 0 0 0 0 0 127 0" result="hardAlpha"/>
<feOffset dy="4"/>
<feGaussianBlur stdDeviation="2"/>
<feComposite in2="hardAlpha" operator="out"/>
<feColorMatrix type="matrix" values="0 0 0 0 0 0 0 0 0 0 0 0 0 0 0 0 0 0 0.25 0"/>
<feBlend mode="normal" in2="BackgroundImageFix" result="effect1_dropShadow"/>
<feBlend mode="normal" in="SourceGraphic" in2="effect1_dropShadow" result="shape"/>
</filter>
</defs>
</svg>
