<svg width="28" height="30" viewBox="0 0 28 30" fill="none" xmlns="http://www.w3.org/2000/svg">
<g filter="url(#filter0_d)">
<path d="M14 2C19.522 2 24 5.978 24 10.889C23.9992 12.3622 23.4136 13.7748 22.3717 14.8165C21.3299 15.8581 19.9172 16.4435 18.444 16.444H16.478C15.556 16.444 14.811 17.189 14.811 18.111C14.811 18.533 14.978 18.922 15.233 19.211C15.5 19.511 15.667 19.9 15.667 20.333C15.667 21.256 14.9 22 14 22C8.478 22 4 17.522 4 12C4 6.478 8.478 2 14 2ZM12.811 18.111C12.8106 17.6293 12.9052 17.1523 13.0893 16.7072C13.2735 16.2622 13.5436 15.8578 13.8842 15.5172C14.2248 15.1766 14.6292 14.9065 15.0742 14.7223C15.5193 14.5382 15.9963 14.4436 16.478 14.444H18.444C19.3866 14.4435 20.2905 14.0689 20.9572 13.4026C21.6239 12.7363 21.9989 11.8326 22 10.89C22 7.139 18.468 4 14 4C11.9356 3.99812 9.95034 4.79436 8.45938 6.22225C6.96841 7.65014 6.08715 9.59913 5.99986 11.6617C5.91256 13.7243 6.62599 15.7408 7.99097 17.2895C9.35595 18.8383 11.2668 19.7994 13.324 19.972C12.9892 19.4093 12.812 18.7668 12.811 18.112V18.111ZM9.5 12C9.10218 12 8.72064 11.842 8.43934 11.5607C8.15804 11.2794 8 10.8978 8 10.5C8 10.1022 8.15804 9.72064 8.43934 9.43934C8.72064 9.15804 9.10218 9 9.5 9C9.89782 9 10.2794 9.15804 10.5607 9.43934C10.842 9.72064 11 10.1022 11 10.5C11 10.8978 10.842 11.2794 10.5607 11.5607C10.2794 11.842 9.89782 12 9.5 12ZM18.5 12C18.1022 12 17.7206 11.842 17.4393 11.5607C17.158 11.2794 17 10.8978 17 10.5C17 10.1022 17.158 9.72064 17.4393 9.43934C17.7206 9.15804 18.1022 9 18.5 9C18.8978 9 19.2794 9.15804 19.5607 9.43934C19.842 9.72064 20 10.1022 20 10.5C20 10.8978 19.842 11.2794 19.5607 11.5607C19.2794 11.842 18.8978 12 18.5 12ZM14 9C13.6022 9 13.2206 8.84196 12.9393 8.56066C12.658 8.27936 12.5 7.89782 12.5 7.5C12.5 7.10218 12.658 6.72064 12.9393 6.43934C13.2206 6.15804 13.6022 6 14 6C14.3978 6 14.7794 6.15804 15.0607 6.43934C15.342 6.72064 15.5 7.10218 15.5 7.5C15.5 7.89782 15.342 8.27936 15.0607 8.56066C14.7794 8.84196 14.3978 9 14 9Z" fill="#09121F"/>
</g>
<defs>
<filter id="filter0_d" x="-2" y="0" width="32" height="32" filterUnits="userSpaceOnUse" color-interpolation-filters="sRGB">
<feFlood flood-opacity="0" result="BackgroundImageFix"/>
<feColorMatrix in="SourceAlpha" type="matrix" values="0 0 0 0 0 0 0 0 0 0 0 0 0 0 0 0 0 0 127 0" result="hardAlpha"/>
<feOffset dy="4"/>
<feGaussianBlur stdDeviation="2"/>
<feComposite in2="hardAlpha" operator="out"/>
<feColorMatrix type="matrix" values="0 0 0 0 0 0 0 0 0 0 0 0 0 0 0 0 0 0 0.25 0"/>
<feBlend mode="normal" in2="BackgroundImageFix" result="effect1_dropShadow"/>
<feBlend mode="normal" in="SourceGraphic" in2="effect1_dropShadow" result="shape"/>
</filter>
</defs>
</svg>
