<svg width="30" height="30" viewBox="0 0 30 30" fill="none" xmlns="http://www.w3.org/2000/svg">
<g filter="url(#filter0_d)">
<path d="M18.596 1.03999L24.943 7.38599C25.0084 7.45129 25.0544 7.53343 25.0759 7.6233C25.0975 7.71317 25.0937 7.80725 25.065 7.8951C25.0363 7.98294 24.9838 8.06112 24.9134 8.12094C24.843 8.18077 24.7573 8.2199 24.666 8.23399L23.192 8.46399L17.536 2.80799L17.748 1.32299C17.7612 1.23116 17.7996 1.14481 17.8591 1.0736C17.9185 1.00238 17.9966 0.94911 18.0846 0.919742C18.1726 0.890374 18.2671 0.886068 18.3574 0.907305C18.4477 0.928542 18.5303 0.974484 18.596 1.03999ZM6.59498 20.15C10.317 16.819 14.59 15.822 19.238 14.63L19.684 10.612L15.387 6.31499L11.369 6.76099C10.177 11.409 9.17998 15.681 5.84898 19.404L4.45398 18.01C7.28198 14.71 8.34398 11.057 9.75698 4.92899L16.121 4.22199L21.778 9.87899L21.071 16.243C14.943 17.657 11.289 18.718 7.98998 21.546L6.59498 20.15ZM11.879 14.12C11.688 13.9355 11.5356 13.7148 11.4308 13.4708C11.326 13.2268 11.2708 12.9644 11.2685 12.6988C11.2662 12.4332 11.3168 12.1699 11.4173 11.9241C11.5179 11.6783 11.6664 11.455 11.8542 11.2672C12.042 11.0794 12.2653 10.9309 12.5111 10.8303C12.7569 10.7298 13.0202 10.6792 13.2858 10.6815C13.5513 10.6838 13.8138 10.739 14.0578 10.8438C14.3018 10.9486 14.5225 11.101 14.707 11.292C15.0663 11.6701 15.2637 12.1735 15.2571 12.695C15.2505 13.2166 15.0405 13.7149 14.6717 14.0838C14.303 14.4526 13.8047 14.6629 13.2832 14.6696C12.7617 14.6764 12.2582 14.4792 11.88 14.12H11.879Z" fill="#09121F"/>
</g>
<defs>
<filter id="filter0_d" x="-2" y="0" width="32" height="32" filterUnits="userSpaceOnUse" color-interpolation-filters="sRGB">
<feFlood flood-opacity="0" result="BackgroundImageFix"/>
<feColorMatrix in="SourceAlpha" type="matrix" values="0 0 0 0 0 0 0 0 0 0 0 0 0 0 0 0 0 0 127 0" result="hardAlpha"/>
<feOffset dy="4"/>
<feGaussianBlur stdDeviation="2"/>
<feComposite in2="hardAlpha" operator="out"/>
<feColorMatrix type="matrix" values="0 0 0 0 0 0 0 0 0 0 0 0 0 0 0 0 0 0 0.25 0"/>
<feBlend mode="normal" in2="BackgroundImageFix" result="effect1_dropShadow"/>
<feBlend mode="normal" in="SourceGraphic" in2="effect1_dropShadow" result="shape"/>
</filter>
</defs>
</svg>
