<svg width="28" height="30" viewBox="0 0 28 30" fill="none" xmlns="http://www.w3.org/2000/svg">
<g filter="url(#filter0_d)">
<path d="M14 22C8.477 22 4 17.523 4 12C4 6.477 8.477 2 14 2C19.523 2 24 6.477 24 12C24 17.523 19.523 22 14 22ZM14 20C16.1217 20 18.1566 19.1571 19.6569 17.6569C21.1571 16.1566 22 14.1217 22 12C22 9.87827 21.1571 7.84344 19.6569 6.34315C18.1566 4.84285 16.1217 4 14 4C11.8783 4 9.84344 4.84285 8.34315 6.34315C6.84285 7.84344 6 9.87827 6 12C6 14.1217 6.84285 16.1566 8.34315 17.6569C9.84344 19.1571 11.8783 20 14 20ZM14 17C12.6739 17 11.4021 16.4732 10.4645 15.5355C9.52678 14.5979 9 13.3261 9 12C9 10.6739 9.52678 9.40215 10.4645 8.46447C11.4021 7.52678 12.6739 7 14 7C15.3261 7 16.5979 7.52678 17.5355 8.46447C18.4732 9.40215 19 10.6739 19 12C19 13.3261 18.4732 14.5979 17.5355 15.5355C16.5979 16.4732 15.3261 17 14 17Z" fill="#09121F"/>
</g>
<defs>
<filter id="filter0_d" x="-2" y="0" width="32" height="32" filterUnits="userSpaceOnUse" color-interpolation-filters="sRGB">
<feFlood flood-opacity="0" result="BackgroundImageFix"/>
<feColorMatrix in="SourceAlpha" type="matrix" values="0 0 0 0 0 0 0 0 0 0 0 0 0 0 0 0 0 0 127 0" result="hardAlpha"/>
<feOffset dy="4"/>
<feGaussianBlur stdDeviation="2"/>
<feComposite in2="hardAlpha" operator="out"/>
<feColorMatrix type="matrix" values="0 0 0 0 0 0 0 0 0 0 0 0 0 0 0 0 0 0 0.25 0"/>
<feBlend mode="normal" in2="BackgroundImageFix" result="effect1_dropShadow"/>
<feBlend mode="normal" in="SourceGraphic" in2="effect1_dropShadow" result="shape"/>
</filter>
</defs>
</svg>
