<svg width="32" height="32" viewBox="0 0 32 32" fill="none" xmlns="http://www.w3.org/2000/svg">
<g filter="url(#filter0_d)">
<path d="M22.031 16.617L26.314 20.899L24.899 22.314L20.617 18.031C19.0237 19.3082 17.042 20.0029 15 20C10.032 20 6 15.968 6 11C6 6.032 10.032 2 15 2C19.968 2 24 6.032 24 11C24.0029 13.042 23.3082 15.0237 22.031 16.617ZM20.025 15.875C21.2941 14.5699 22.0029 12.8204 22 11C22 7.132 18.867 4 15 4C11.132 4 8 7.132 8 11C8 14.867 11.132 18 15 18C16.8204 18.0029 18.5699 17.2941 19.875 16.025L20.025 15.875Z" fill="#27272E"/>
</g>
<defs>
<filter id="filter0_d" x="0" y="0" width="32" height="32" filterUnits="userSpaceOnUse" color-interpolation-filters="sRGB">
<feFlood flood-opacity="0" result="BackgroundImageFix"/>
<feColorMatrix in="SourceAlpha" type="matrix" values="0 0 0 0 0 0 0 0 0 0 0 0 0 0 0 0 0 0 127 0" result="hardAlpha"/>
<feOffset dy="4"/>
<feGaussianBlur stdDeviation="2"/>
<feComposite in2="hardAlpha" operator="out"/>
<feColorMatrix type="matrix" values="0 0 0 0 0 0 0 0 0 0 0 0 0 0 0 0 0 0 0.25 0"/>
<feBlend mode="normal" in2="BackgroundImageFix" result="effect1_dropShadow"/>
<feBlend mode="normal" in="SourceGraphic" in2="effect1_dropShadow" result="shape"/>
</filter>
</defs>
</svg>
