<svg width="30" height="29" viewBox="0 0 30 29" fill="none" xmlns="http://www.w3.org/2000/svg">
<g filter="url(#filter0_d)">
<path d="M5 9H8V21H5C4.73478 21 4.48043 20.8946 4.29289 20.7071C4.10536 20.5196 4 20.2652 4 20V10C4 9.73478 4.10536 9.48043 4.29289 9.29289C4.48043 9.10535 4.73478 9 5 9ZM10.293 7.707L16.693 1.307C16.7781 1.22169 16.8911 1.16996 17.0112 1.16133C17.1314 1.15269 17.2506 1.18773 17.347 1.26L18.2 1.9C18.4369 2.07784 18.6158 2.32185 18.7143 2.60125C18.8127 2.88066 18.8262 3.18294 18.753 3.47L17.6 8H24C24.5304 8 25.0391 8.21071 25.4142 8.58578C25.7893 8.96086 26 9.46956 26 10V12.104C26.0003 12.3654 25.9493 12.6242 25.85 12.866L22.755 20.381C22.6795 20.5642 22.5513 20.7209 22.3866 20.8311C22.2219 20.9413 22.0282 21.0001 21.83 21H11C10.7348 21 10.4804 20.8946 10.2929 20.7071C10.1054 20.5196 10 20.2652 10 20V8.414C10.0001 8.1488 10.1055 7.89449 10.293 7.707Z" fill="#09121F"/>
</g>
<defs>
<filter id="filter0_d" x="-1" y="0" width="32" height="32" filterUnits="userSpaceOnUse" color-interpolation-filters="sRGB">
<feFlood flood-opacity="0" result="BackgroundImageFix"/>
<feColorMatrix in="SourceAlpha" type="matrix" values="0 0 0 0 0 0 0 0 0 0 0 0 0 0 0 0 0 0 127 0" result="hardAlpha"/>
<feOffset dy="4"/>
<feGaussianBlur stdDeviation="2"/>
<feComposite in2="hardAlpha" operator="out"/>
<feColorMatrix type="matrix" values="0 0 0 0 0 0 0 0 0 0 0 0 0 0 0 0 0 0 0.25 0"/>
<feBlend mode="normal" in2="BackgroundImageFix" result="effect1_dropShadow"/>
<feBlend mode="normal" in="SourceGraphic" in2="effect1_dropShadow" result="shape"/>
</filter>
</defs>
</svg>
