<svg width="30" height="29" viewBox="0 0 30 29" fill="none" xmlns="http://www.w3.org/2000/svg">
<g filter="url(#filter0_d)">
<path d="M17.6 8H24C24.5304 8 25.0391 8.21072 25.4142 8.58579C25.7893 8.96086 26 9.46957 26 10V12.104C26.0003 12.3654 25.9493 12.6242 25.85 12.866L22.755 20.381C22.6795 20.5642 22.5513 20.7209 22.3866 20.8311C22.2219 20.9413 22.0282 21.0001 21.83 21H5C4.73478 21 4.48043 20.8946 4.29289 20.7071C4.10536 20.5196 4 20.2652 4 20V10C4 9.73479 4.10536 9.48043 4.29289 9.2929C4.48043 9.10536 4.73478 9 5 9H8.482C8.6421 9.00004 8.79986 8.96165 8.94203 8.88804C9.0842 8.81443 9.20662 8.70776 9.299 8.577L14.752 0.850003C14.8209 0.752316 14.9226 0.682563 15.0385 0.653393C15.1545 0.624223 15.277 0.637566 15.384 0.691003L17.198 1.598C17.7085 1.85317 18.1163 2.27532 18.3537 2.79432C18.5911 3.31332 18.6438 3.89793 18.503 4.451L17.6 8ZM10 10.588V19H21.16L24 12.104V10H17.6C17.2954 9.99996 16.9948 9.93034 16.7212 9.79646C16.4476 9.66258 16.2082 9.46797 16.0213 9.22749C15.8343 8.98701 15.7048 8.707 15.6425 8.40883C15.5803 8.11066 15.5869 7.80221 15.662 7.507L16.565 3.959C16.5933 3.84833 16.5828 3.73132 16.5353 3.62743C16.4878 3.52355 16.4062 3.43905 16.304 3.388L15.643 3.058L10.933 9.73C10.683 10.084 10.363 10.374 10 10.588ZM8 11H6V19H8V11Z" fill="#09121F"/>
</g>
<defs>
<filter id="filter0_d" x="-1" y="0" width="32" height="32" filterUnits="userSpaceOnUse" color-interpolation-filters="sRGB">
<feFlood flood-opacity="0" result="BackgroundImageFix"/>
<feColorMatrix in="SourceAlpha" type="matrix" values="0 0 0 0 0 0 0 0 0 0 0 0 0 0 0 0 0 0 127 0" result="hardAlpha"/>
<feOffset dy="4"/>
<feGaussianBlur stdDeviation="2"/>
<feComposite in2="hardAlpha" operator="out"/>
<feColorMatrix type="matrix" values="0 0 0 0 0 0 0 0 0 0 0 0 0 0 0 0 0 0 0.25 0"/>
<feBlend mode="normal" in2="BackgroundImageFix" result="effect1_dropShadow"/>
<feBlend mode="normal" in="SourceGraphic" in2="effect1_dropShadow" result="shape"/>
</filter>
</defs>
</svg>
