<svg width="26" height="26" viewBox="0 0 26 26" fill="none" xmlns="http://www.w3.org/2000/svg">
<g filter="url(#filter0_d)">
<path d="M20.6215 4.24201C20.0489 4.49528 19.4417 4.66161 18.82 4.73551C19.4753 4.34358 19.9658 3.72677 20.2 3.00001C19.585 3.36601 18.9107 3.62251 18.208 3.76126C17.7359 3.25619 17.1102 2.92123 16.4282 2.80844C15.7461 2.69566 15.0459 2.81137 14.4364 3.1376C13.8269 3.46382 13.3423 3.98227 13.0578 4.61235C12.7734 5.24243 12.705 5.94884 12.8635 6.62176C11.6163 6.55925 10.3962 6.23515 9.28244 5.6705C8.16866 5.10586 7.18607 4.31329 6.39848 3.34426C6.1197 3.82309 5.97319 4.36743 5.97398 4.92151C5.97398 6.00901 6.52748 6.96976 7.36898 7.53226C6.87099 7.51658 6.38395 7.38209 5.94848 7.14001V7.17901C5.94863 7.90328 6.19926 8.60522 6.65786 9.1658C7.11647 9.72638 7.75484 10.1111 8.46473 10.2548C8.00244 10.38 7.51771 10.3985 7.04723 10.3088C7.24738 10.9322 7.63748 11.4774 8.16292 11.8681C8.68836 12.2588 9.32282 12.4754 9.97748 12.4875C9.32684 12.9985 8.58186 13.3762 7.78514 13.5991C6.98842 13.822 6.15557 13.8857 5.33423 13.7865C6.768 14.7086 8.43705 15.1981 10.1417 15.1965C15.9115 15.1965 19.0667 10.4168 19.0667 6.27151C19.0667 6.13651 19.063 6.00001 19.057 5.86651C19.6711 5.42263 20.2012 4.87277 20.6222 4.24276L20.6215 4.24201Z" fill="#27272E"/>
</g>
<defs>
<filter id="filter0_d" x="0" y="0" width="26" height="26" filterUnits="userSpaceOnUse" color-interpolation-filters="sRGB">
<feFlood flood-opacity="0" result="BackgroundImageFix"/>
<feColorMatrix in="SourceAlpha" type="matrix" values="0 0 0 0 0 0 0 0 0 0 0 0 0 0 0 0 0 0 127 0" result="hardAlpha"/>
<feOffset dy="4"/>
<feGaussianBlur stdDeviation="2"/>
<feComposite in2="hardAlpha" operator="out"/>
<feColorMatrix type="matrix" values="0 0 0 0 0 0 0 0 0 0 0 0 0 0 0 0 0 0 0.25 0"/>
<feBlend mode="normal" in2="BackgroundImageFix" result="effect1_dropShadow"/>
<feBlend mode="normal" in="SourceGraphic" in2="effect1_dropShadow" result="shape"/>
</filter>
</defs>
</svg>
