<svg width="48" height="47" viewBox="0 0 48 47" fill="none" xmlns="http://www.w3.org/2000/svg">
<g filter="url(#filter0_d)">
<path d="M24.73 38.75C19.9775 38.75 15.6275 37.075 12.27 34.3025L4 35.385L7.19 27.775C6.07 25.405 5.4575 22.7725 5.4575 20C5.4575 9.6425 14.09 1.25 24.7275 1.25C35.38 1.25 44 9.6425 44 20C44 30.3575 35.38 38.75 24.73 38.75Z" fill="#2196F3"/>
<path d="M24.8525 10H17.75V30H24.7525C31.3775 30 35.25 25.7125 35.25 19.945V19.8925C35.25 14.1275 31.4275 10 24.8525 10ZM30.0075 20.0125C30.0075 23.2525 27.9825 25.08 24.9275 25.08H22.8525V14.905H24.9275C27.9825 14.905 30.0075 16.76 30.0075 19.96V20.0125Z" fill="#FAFAFA"/>
</g>
<defs>
<filter id="filter0_d" x="0" y="0" width="48" height="48" filterUnits="userSpaceOnUse" color-interpolation-filters="sRGB">
<feFlood flood-opacity="0" result="BackgroundImageFix"/>
<feColorMatrix in="SourceAlpha" type="matrix" values="0 0 0 0 0 0 0 0 0 0 0 0 0 0 0 0 0 0 127 0" result="hardAlpha"/>
<feOffset dy="4"/>
<feGaussianBlur stdDeviation="2"/>
<feComposite in2="hardAlpha" operator="out"/>
<feColorMatrix type="matrix" values="0 0 0 0 0 0 0 0 0 0 0 0 0 0 0 0 0 0 0.25 0"/>
<feBlend mode="normal" in2="BackgroundImageFix" result="effect1_dropShadow"/>
<feBlend mode="normal" in="SourceGraphic" in2="effect1_dropShadow" result="shape"/>
</filter>
</defs>
</svg>
