<svg width="48" height="48" viewBox="0 0 48 48" fill="none" xmlns="http://www.w3.org/2000/svg">
<g filter="url(#filter0_d)">
<path d="M23.9999 0C35.0462 0 44 8.95499 44 20.0001C44 31.0464 35.0462 40 23.9999 40C12.9536 40 4 31.0462 4 20.0001C4 8.95499 12.9538 0 23.9999 0Z" fill="#3B5998"/>
<path d="M26.435 13.7688H29.0125V9.96124H25.9825V9.97497C22.3112 10.105 21.5588 12.1687 21.4925 14.3362H21.4849V16.2375H18.985V19.9662H21.4849V29.9612H25.2525V19.9662H28.3387L28.9349 16.2375H25.2537V15.0888C25.2537 14.3563 25.7412 13.7688 26.435 13.7688Z" fill="white"/>
</g>
<defs>
<filter id="filter0_d" x="0" y="0" width="48" height="48" filterUnits="userSpaceOnUse" color-interpolation-filters="sRGB">
<feFlood flood-opacity="0" result="BackgroundImageFix"/>
<feColorMatrix in="SourceAlpha" type="matrix" values="0 0 0 0 0 0 0 0 0 0 0 0 0 0 0 0 0 0 127 0" result="hardAlpha"/>
<feOffset dy="4"/>
<feGaussianBlur stdDeviation="2"/>
<feComposite in2="hardAlpha" operator="out"/>
<feColorMatrix type="matrix" values="0 0 0 0 0 0 0 0 0 0 0 0 0 0 0 0 0 0 0.25 0"/>
<feBlend mode="normal" in2="BackgroundImageFix" result="effect1_dropShadow"/>
<feBlend mode="normal" in="SourceGraphic" in2="effect1_dropShadow" result="shape"/>
</filter>
</defs>
</svg>
