<svg width="47" height="47" viewBox="0 0 47 47" fill="none" xmlns="http://www.w3.org/2000/svg">
<g filter="url(#filter0_d)">
<path d="M23.3316 38.5655C12.9869 38.5655 4.60575 30.2997 4.60575 20.1088C4.60052 9.91288 12.9869 1.647 23.3316 1.647C33.6762 1.647 42.0574 9.91288 42.0574 20.1037C42.0574 30.2997 33.671 38.5655 23.3316 38.5655Z" fill="url(#paint0_radial)"/>
<path d="M23.3316 11.8069C26.0731 11.8069 26.3969 11.8172 27.483 11.8635C28.4856 11.9099 29.0287 12.0746 29.389 12.2135C29.8695 12.3988 30.2089 12.615 30.5692 12.9701C30.9295 13.3252 31.1488 13.6598 31.3368 14.1333C31.4778 14.4884 31.6449 15.0237 31.6919 16.0119C31.7389 17.0773 31.7493 17.4016 31.7493 20.1037C31.7493 22.8058 31.7389 23.1249 31.6919 24.1954C31.6449 25.1836 31.4778 25.7189 31.3368 26.0741C31.1488 26.5476 30.9295 26.8821 30.5692 27.2372C30.2089 27.5924 29.8695 27.8085 29.389 27.9938C29.0287 28.1328 28.4856 28.2975 27.483 28.3438C26.4021 28.3901 26.0783 28.4004 23.3316 28.4004C20.5901 28.4004 20.2663 28.3901 19.1802 28.3438C18.1775 28.2975 17.6345 28.1328 17.2742 27.9938C16.7937 27.8085 16.4543 27.5924 16.094 27.2372C15.7337 26.8821 15.5144 26.5476 15.3264 26.0741C15.1854 25.7189 15.0183 25.1836 14.9713 24.1954C14.9243 23.13 14.9138 22.8058 14.9138 20.1037C14.9138 17.4016 14.9243 17.0825 14.9713 16.0119C15.0183 15.0237 15.1854 14.4884 15.3264 14.1333C15.5144 13.6598 15.7337 13.3252 16.094 12.9701C16.4543 12.615 16.7937 12.3988 17.2742 12.2135C17.6345 12.0746 18.1775 11.9099 19.1802 11.8635C20.2611 11.8172 20.5901 11.8069 23.3316 11.8069ZM23.3316 9.98492C20.5431 9.98492 20.1932 9.99522 19.0966 10.0467C18.0052 10.0982 17.2585 10.268 16.6057 10.5151C15.9321 10.7724 15.3577 11.1172 14.7885 11.6834C14.2193 12.2444 13.8642 12.8106 13.6031 13.4745C13.3473 14.1179 13.1749 14.8539 13.1279 15.9296C13.0757 17.0104 13.0653 17.3552 13.0653 20.1037C13.0653 22.8521 13.0757 23.1969 13.1279 24.2778C13.1802 25.3535 13.3525 26.0895 13.6031 26.7329C13.8642 27.3968 14.2141 27.963 14.7885 28.524C15.3577 29.085 15.9321 29.435 16.6057 29.6923C17.2585 29.9445 18.0052 30.1143 19.0966 30.1607C20.1932 30.2121 20.5431 30.2224 23.3316 30.2224C26.1201 30.2224 26.47 30.2121 27.5666 30.1607C28.658 30.1092 29.4047 29.9394 30.0574 29.6923C30.7311 29.435 31.3055 29.0901 31.8747 28.524C32.4439 27.963 32.799 27.3968 33.0601 26.7329C33.3159 26.0895 33.4882 25.3535 33.5352 24.2778C33.5875 23.1969 33.5979 22.8521 33.5979 20.1037C33.5979 17.3552 33.5875 17.0104 33.5352 15.9296C33.483 14.8539 33.3107 14.1179 33.0601 13.4745C32.799 12.8106 32.4491 12.2444 31.8747 11.6834C31.3055 11.1224 30.7311 10.7724 30.0574 10.5151C29.4047 10.2629 28.658 10.093 27.5666 10.0467C26.47 9.99522 26.1201 9.98492 23.3316 9.98492Z" fill="white"/>
<path d="M23.3316 14.9105C20.4177 14.9105 18.0574 17.2369 18.0574 20.1088C18.0574 22.9808 20.4177 25.3072 23.3316 25.3072C26.2454 25.3072 28.6057 22.9808 28.6057 20.1088C28.6005 17.2369 26.2402 14.9105 23.3316 14.9105ZM23.3316 23.48C21.4412 23.48 19.9112 21.972 19.9112 20.1088C19.9112 18.2457 21.4412 16.7376 23.3316 16.7376C25.2219 16.7376 26.752 18.2457 26.752 20.1088C26.752 21.9669 25.2219 23.48 23.3316 23.48Z" fill="white"/>
<path d="M30.0418 14.7046C30.0418 15.3737 29.4883 15.9193 28.8094 15.9193C28.1306 15.9193 27.577 15.3737 27.577 14.7046C27.577 14.0355 28.1306 13.49 28.8094 13.49C29.4935 13.49 30.0418 14.0304 30.0418 14.7046Z" fill="white"/>
</g>
<defs>
<filter id="filter0_d" x="-2" y="0" width="50" height="49" filterUnits="userSpaceOnUse" color-interpolation-filters="sRGB">
<feFlood flood-opacity="0" result="BackgroundImageFix"/>
<feColorMatrix in="SourceAlpha" type="matrix" values="0 0 0 0 0 0 0 0 0 0 0 0 0 0 0 0 0 0 127 0" result="hardAlpha"/>
<feOffset dy="4"/>
<feGaussianBlur stdDeviation="2"/>
<feComposite in2="hardAlpha" operator="out"/>
<feColorMatrix type="matrix" values="0 0 0 0 0 0 0 0 0 0 0 0 0 0 0 0 0 0 0.25 0"/>
<feBlend mode="normal" in2="BackgroundImageFix" result="effect1_dropShadow"/>
<feBlend mode="normal" in="SourceGraphic" in2="effect1_dropShadow" result="shape"/>
</filter>
<radialGradient id="paint0_radial" cx="0" cy="0" r="1" gradientUnits="userSpaceOnUse" gradientTransform="translate(3.66523 38.6865) scale(69.2509 68.2555)">
<stop stop-color="#F5EC53"/>
<stop offset="0.2412" stop-color="#E48244"/>
<stop offset="0.3974" stop-color="#D15767"/>
<stop offset="0.4888" stop-color="#C84278"/>
<stop offset="1" stop-color="#192CFA"/>
</radialGradient>
</defs>
</svg>
